<svg width="14" height="14" viewBox="0 0 14 14" fill="none" xmlns="http://www.w3.org/2000/svg">
<g opacity="0.9">
<path fill-rule="evenodd" clip-rule="evenodd" d="M7.00016 0.333008C3.31976 0.333008 0.333496 3.31927 0.333496 6.99966C0.333496 10.6801 3.31976 13.6663 7.00016 13.6663C10.6733 13.6663 13.6668 10.6801 13.6668 6.99966C13.6668 3.31927 10.6733 0.333008 7.00016 0.333008ZM11.4036 3.40603C12.199 4.37494 12.6763 5.61138 12.6907 6.94904C12.5027 6.91291 10.6227 6.52966 8.72829 6.76829C8.68492 6.67429 8.64874 6.57304 8.60537 6.47183C8.48967 6.19708 8.35954 5.91508 8.22937 5.64754C10.3263 4.79433 11.2807 3.56511 11.4036 3.40603ZM7.00016 1.31638C8.44629 1.31638 9.7695 1.85868 10.7745 2.74805C10.6733 2.89266 9.81283 4.04233 7.78829 4.80154C6.85553 3.08788 5.82158 1.68514 5.6625 1.46821C6.08908 1.36699 6.53741 1.31638 7.00016 1.31638ZM4.57792 1.85144C4.72974 2.0539 5.74204 3.46388 6.68925 5.14138C4.02836 5.85 1.6784 5.83554 1.42532 5.83554C1.79409 4.07125 2.98714 2.60343 4.57792 1.85144ZM1.3024 7.00691C1.3024 6.94904 1.3024 6.8912 1.3024 6.83338C1.54825 6.84058 4.31036 6.87675 7.152 6.02354C7.31833 6.34166 7.47016 6.66704 7.61479 6.99241C7.54246 7.01412 7.46292 7.03583 7.39062 7.0575C4.45497 8.00471 2.89315 10.5933 2.763 10.8102C1.85916 9.80511 1.3024 8.4675 1.3024 7.00691ZM7.00016 12.6974C5.68416 12.6974 4.46943 12.2491 3.50775 11.4971C3.60898 11.2875 4.76587 9.06045 7.97629 7.93966C7.99074 7.93241 7.998 7.93241 8.01246 7.9252C8.81504 10.0003 9.14045 11.7429 9.22721 12.2419C8.54029 12.5383 7.78829 12.6974 7.00016 12.6974ZM10.1744 11.7213C10.1165 11.3742 9.81283 9.71111 9.06816 7.66487C10.8542 7.38287 12.4159 7.84566 12.6112 7.91074C12.3653 9.49426 11.4543 10.8608 10.1744 11.7213Z" fill="#9098A0"/>
</g>
</svg>
