<svg width="22" height="18" viewBox="0 0 22 18" fill="none" xmlns="http://www.w3.org/2000/svg">
<g opacity="0.9">
<path d="M6.92098 18C15.2208 18 19.7617 11.0742 19.7617 5.0699C19.7617 4.87521 19.7575 4.67617 19.7488 4.48147C20.6322 3.83819 21.3946 3.04142 22 2.12856C21.1773 2.49713 20.3038 2.73785 19.4094 2.84248C20.3512 2.27405 21.0563 1.38106 21.3941 0.329056C20.5081 0.857776 19.5392 1.23073 18.529 1.43195C17.8483 0.703635 16.9482 0.221393 15.968 0.0597933C14.9879 -0.101791 13.982 0.0662617 13.1063 0.537974C12.2304 1.00969 11.5333 1.7588 11.1227 2.66948C10.7121 3.58017 10.6108 4.60169 10.8346 5.57614C9.04062 5.48549 7.28561 5.01623 5.68332 4.19877C4.08103 3.38132 2.66722 2.23392 1.53356 0.830971C0.957367 1.8313 0.781059 3.01501 1.04044 4.14154C1.29983 5.26807 1.97547 6.25286 2.93003 6.8958C2.21341 6.8729 1.51247 6.67861 0.885163 6.32899V6.38525C0.884517 7.43501 1.24492 8.45262 1.90511 9.26506C2.56532 10.0775 3.48455 10.6347 4.50657 10.8418C3.84271 11.0247 3.14599 11.0514 2.47028 10.9197C2.75867 11.8225 3.31977 12.6121 4.07529 13.1783C4.8308 13.7445 5.74303 14.0593 6.68464 14.0783C5.08606 15.3427 3.11133 16.0285 1.07851 16.0253C0.718007 16.0247 0.357867 16.0025 0 15.9587C2.06513 17.2927 4.46741 18.0013 6.92098 18Z" fill="#31373D"/>
</g>
</svg>
